<svg width="22" height="15" viewBox="0 0 22 15" fill="none" xmlns="http://www.w3.org/2000/svg">
<path d="M21.2852 0.275364C21.3725 0.36243 21.4417 0.465862 21.489 0.579733C21.5362 0.693605 21.5605 0.81568 21.5605 0.938966C21.5605 1.06225 21.5362 1.18433 21.489 1.2982C21.4417 1.41207 21.3725 1.5155 21.2852 1.60257L8.16311 14.7246C8.07604 14.8119 7.97261 14.8812 7.85874 14.9284C7.74487 14.9757 7.62279 15 7.49951 15C7.37622 15 7.25415 14.9757 7.14028 14.9284C7.0264 14.8812 6.92297 14.8119 6.83591 14.7246L0.274873 8.1636C0.0988745 7.9876 0 7.7489 0 7.5C0 7.2511 0.0988745 7.0124 0.274873 6.8364C0.450871 6.6604 0.689576 6.56153 0.938475 6.56153C1.18737 6.56153 1.42608 6.6604 1.60208 6.8364L7.49951 12.7357L19.958 0.275364C20.045 0.188078 20.1485 0.118825 20.2623 0.071574C20.3762 0.0243224 20.4983 0 20.6216 0C20.7449 0 20.8669 0.0243224 20.9808 0.071574C21.0947 0.118825 21.1981 0.188078 21.2852 0.275364Z" fill="#2D898B"/>
</svg>
