<svg width="220" height="54" viewBox="0 0 220 54" fill="none" xmlns="http://www.w3.org/2000/svg">
<path d="M40.6002 6.49395C40.5942 5.84113 39.922 6.39621 39.922 6.39621C40.3067 5.51422 39.6144 5.73856 39.6144 5.73856C39.341 5.08948 38.8257 6.24166 38.8257 6.24166L38.7171 5.3308C38.2587 4.72906 38.0589 5.68004 38.0589 5.68004C38.0589 5.68004 37.9292 5.25256 37.8195 5.27196C37.5454 5.32048 37.3383 6.54893 37.3383 6.54893C37.3383 6.54893 37.3389 6.08375 37.0242 5.58742C36.7096 5.09085 36.4484 5.74755 36.4484 5.74755C36.5989 5.92438 36.6535 6.14718 36.6875 6.38815C36.7215 6.62911 36.7006 6.87987 36.6318 7.09549C36.5631 7.31111 36.4942 7.52683 36.3775 7.70731C36.2608 7.88778 36.1167 8.01504 35.9248 8.10727C35.9457 7.85654 35.9938 7.65912 36.0421 7.46159C36.0903 7.26406 36.1179 7.08477 36.1798 6.91403L36.3174 6.36647L36.4826 5.75583C36.0858 5.2158 35.9958 6.03103 35.9958 6.03103C35.4072 5.35058 35.7343 6.92024 35.5491 7.08383C35.4257 7.19288 35.0973 6.66986 35.0973 6.66986C34.9587 8.03136 34.6009 9.19926 34.0859 10.1189C33.9349 10.4073 33.8316 10.7308 33.8313 11.0796L33.8099 11.7955C33.7756 11.787 33.7345 11.8233 33.7619 11.8767L33.6357 14.3116C33.0681 13.3804 32.7132 12.1064 32.5847 10.6323C32.5847 10.6323 32.221 11.1473 32.1114 11.0505C31.9197 10.91 32.2848 9.34847 31.6878 9.99201C31.6878 9.99201 31.6203 9.16106 31.2153 9.71249L31.3517 10.3277L31.5697 11.4515C31.6106 11.6476 31.6515 11.844 31.6648 12.1032C31.4799 12.0343 31.3431 11.8842 31.2267 11.7158C31.1104 11.5475 31.0216 11.3161 30.967 11.0934C30.9124 10.8706 30.9127 10.6381 30.9336 10.3872C30.9681 10.163 31.0232 9.92083 31.1742 9.74869C31.1742 9.74869 30.9214 9.08141 30.592 9.60489C30.2623 10.1283 30.2482 10.5667 30.2482 10.5667C30.2482 10.5667 30.0647 9.335 29.8043 9.29399C29.7016 9.26862 29.564 9.69997 29.564 9.69997C29.564 9.69997 29.4075 8.75409 28.9065 9.35144L28.782 10.2745C28.782 10.2745 28.3037 9.10952 28.0083 9.75763C28.0083 9.75763 27.3096 9.56187 27.6717 10.4422C27.6717 10.4422 27.0419 9.91446 26.9931 10.5769C26.9931 10.5769 26.287 10.891 26.6359 11.2797C26.7112 11.3681 27.0058 11.4176 27.0058 11.4176C27.0058 11.4176 26.3681 11.7488 26.4227 11.9715C26.4704 12.2392 27.2658 11.8075 27.2929 12.0934C27.3267 12.4507 25.6884 12.9301 27.1884 13.4634C27.3258 13.2648 27.4904 13.1193 27.6481 13.0186C27.8058 12.918 27.9978 12.8258 28.1622 12.7966C28.3473 12.7493 28.5254 12.7468 28.731 12.7974C28.9159 12.8663 29.1144 12.9619 29.2444 13.1569C29.0457 13.1775 28.895 13.2334 28.7234 13.3074C28.5727 13.3632 28.4081 13.3923 28.2436 13.4215C28.0792 13.4506 27.9146 13.4799 27.7365 13.4823C27.5584 13.4848 27.3801 13.4874 27.1747 13.4366C27.1747 13.4366 26.7079 14.1588 26.8173 14.3719C26.9471 14.6832 27.7975 14.1255 27.9273 14.4368C27.9887 14.6148 27.6113 15.1031 27.6113 15.1031C28.4411 14.5637 29.2569 14.2301 30.0928 14.3435C29.1263 14.6166 28.2688 15.3353 28.2745 16.337C28.2745 16.337 28.8434 16.2216 28.946 16.3634C29.0213 16.4517 28.877 16.8115 28.9591 16.8551C29.1918 17.0754 29.8574 16.3325 30.1313 16.5164C30.2271 16.5867 30.165 16.99 30.2678 17.0155C30.5761 17.0916 31.0847 15.7516 31.0847 15.7516C31.0847 15.7516 30.9738 16.8176 31.6118 16.254C32.3597 15.4384 33.1067 15.3204 33.5099 16.2807L33.3075 25.6916C33.3142 25.8794 33.4039 26.0108 33.5477 25.9999C33.6917 25.9888 33.7626 25.835 33.756 25.6474L33.7845 21.8858C34.2514 21.0473 34.9571 21.1984 35.6415 21.9489C36.2644 22.5215 36.1971 21.458 36.1971 21.458C36.1971 21.458 36.6478 22.8023 36.9631 22.7172C37.0727 22.6977 37.0117 22.2872 37.0939 22.2146C37.3545 22.023 38.0046 22.7653 38.2516 22.5471C38.3339 22.4743 38.2109 22.1183 38.2932 22.0456C38.4236 21.8916 38.958 22.0004 38.958 22.0004C39.0072 20.9889 38.1583 20.2674 37.2198 20.0125C38.0696 19.9199 38.8778 20.2126 39.6789 20.7827C39.6789 20.7827 39.3094 20.296 39.3713 20.125C39.5086 19.81 40.3303 20.3619 40.502 20.0555C40.605 19.8483 40.1674 19.1121 40.1674 19.1121C39.7699 19.2698 39.4274 19.1852 39.0985 19.1273C38.9271 19.0849 38.7901 19.0511 38.619 19.0088C38.4476 18.9665 38.297 18.9061 38.1051 18.8819C38.2288 18.6565 38.4207 18.5643 38.6264 18.4987C38.8115 18.4514 39.0239 18.4574 39.1951 18.4996C39.3665 18.5419 39.5513 18.6108 39.7293 18.7246C39.9074 18.8383 40.0442 18.9885 40.1742 19.1834C41.6961 18.6519 40.0864 18.1381 40.121 17.7977C40.1487 17.5022 40.9362 17.9293 40.9983 17.6422C41.0533 17.3999 40.4438 17.0865 40.4438 17.0865C40.4438 17.0865 40.7181 17.0381 40.8005 16.9653C41.1642 16.5667 40.4656 16.2544 40.4656 16.2544C40.4595 15.6016 39.7873 16.1567 39.7873 16.1567C40.1721 15.2747 39.4797 15.4991 39.4797 15.4991C39.2063 14.85 38.691 16.0022 38.691 16.0022L38.5825 15.0913C38.124 14.4896 37.9243 15.4405 37.9243 15.4405C37.9243 15.4405 37.7946 15.0131 37.6849 15.0325C37.4107 15.081 37.2037 16.3094 37.2037 16.3094C37.2037 16.3094 37.2042 15.8442 36.8896 15.3479C36.575 14.8514 36.3138 15.508 36.3138 15.508C36.4643 15.6849 36.5189 15.9077 36.5528 16.1486C36.5868 16.3896 36.5659 16.6404 36.4972 16.856C36.4284 17.0716 36.3596 17.2873 36.2429 17.4678C36.1261 17.6483 35.9821 17.7755 35.7901 17.8678C35.8111 17.617 35.8592 17.4196 35.9074 17.2221C35.9557 17.0246 35.9833 16.8453 36.0451 16.6745L36.1828 16.127L36.348 15.5163C35.9512 14.9763 35.8612 15.7915 35.8612 15.7915C35.2726 15.1111 35.5996 16.6807 35.4145 16.8443C35.291 16.9534 34.9627 16.4304 34.9627 16.4304C34.7965 17.8549 34.425 19.1126 33.8552 20.0419L33.8985 12.4919C34.3315 11.4124 35.1125 11.5354 35.8585 12.3478C36.4814 12.9204 36.4142 11.8569 36.4142 11.8569C36.4142 11.8569 36.8648 13.2012 37.1801 13.1161C37.2898 13.0966 37.2287 12.6861 37.3109 12.6135C37.5716 12.4219 38.2216 13.1642 38.4686 12.946C38.5509 12.8732 38.4279 12.5172 38.5103 12.4445C38.6406 12.2905 39.175 12.3993 39.175 12.3993C39.2242 11.3878 38.3753 10.6663 37.4368 10.4114C38.2866 10.3188 39.0949 10.6115 39.8959 11.1816C39.8959 11.1816 39.5264 10.6949 39.5883 10.5239C39.7256 10.2089 40.5473 10.7608 40.719 10.4544C40.8221 10.2472 40.3844 9.51098 40.3844 9.51098C39.98 9.59723 39.6512 9.53919 39.3223 9.48135C39.151 9.43904 39.0139 9.40519 38.8428 9.36292C38.6715 9.3206 38.5208 9.26022 38.329 9.23601C38.4526 9.01065 38.6446 8.91842 38.8502 8.85284C39.0353 8.80548 39.2477 8.81148 39.419 8.85366C39.5903 8.89598 39.7751 8.96493 39.9532 9.07866C40.1312 9.1924 40.268 9.34256 40.398 9.53748C41.9199 9.00605 40.3102 8.4922 40.3448 8.15181C40.3725 7.85628 41.1601 8.28339 41.2221 7.99634C41.2771 7.75403 40.6676 7.44065 40.6676 7.44065C40.6676 7.44065 40.9624 7.37392 41.0447 7.30117C41.2989 6.80595 40.6002 6.49395 40.6002 6.49395Z" fill="#2D898B"/>
<path d="M14.4 53.8827C19.824 53.8827 24.096 51.5363 25.968 47.5007L20.16 44.4035C18.768 46.8437 16.704 47.8761 14.352 47.8761C10.56 47.8761 7.584 45.2951 7.584 40.884C7.584 36.473 10.56 33.892 14.352 33.892C16.704 33.892 18.768 34.9713 20.16 37.3645L25.968 34.3143C24.096 30.1848 19.824 27.8854 14.4 27.8854C6 27.8854 0 33.282 0 40.884C0 48.4861 6 53.8827 14.4 53.8827Z" fill="#2D898B"/>
<path d="M30.2794 53.5072H37.7674V28.2608H30.2794V53.5072Z" fill="#2D898B"/>
<path d="M44.7169 53.5072H52.2049V18.6878H44.7169V53.5072Z" fill="#2D898B"/>
<path d="M69.5704 27.8854C65.4424 27.8854 61.2664 28.9647 58.4344 30.9356L61.1224 36.0506C62.9944 34.5959 65.8264 33.7043 68.5624 33.7043C72.5944 33.7043 74.5144 35.5344 74.5144 38.6785H68.5624C60.6904 38.6785 57.4744 41.7756 57.4744 46.2336C57.4744 50.5978 61.0744 53.8827 67.1224 53.8827C70.9144 53.8827 73.6024 52.6626 74.9944 50.3632V53.5072H82.0024V39.1008C82.0024 31.4518 77.4424 27.8854 69.5704 27.8854ZM68.9944 48.9554C66.3544 48.9554 64.7704 47.7353 64.7704 45.9052C64.7704 44.2158 65.8744 42.9488 69.3784 42.9488H74.5144V45.5297C73.6504 47.8291 71.4904 48.9554 68.9944 48.9554Z" fill="#2D898B"/>
<path d="M104.475 27.8854C100.971 27.8854 97.9474 29.0586 95.9314 31.2172V28.2608H88.7794V53.5072H96.2674V41.0248C96.2674 36.3791 98.8594 34.2205 102.459 34.2205C105.771 34.2205 107.691 36.0975 107.691 40.1801V53.5072H115.179V39.0539C115.179 31.358 110.571 27.8854 104.475 27.8854Z" fill="#2D898B"/>
<path d="M136.607 47.1252C135.791 47.7353 134.687 48.0638 133.583 48.0638C131.567 48.0638 130.367 46.8906 130.367 44.732V34.4551H136.799V28.8239H130.367V22.6766H122.879V28.8239H118.895V34.4551H122.879V44.8259C122.879 50.8324 126.431 53.8827 132.527 53.8827C134.831 53.8827 137.087 53.3665 138.623 52.2872L136.607 47.1252Z" fill="#2D898B"/>
<path d="M149.978 31.5926V28.2608H142.826V53.5072H150.314V41.5879C150.314 36.7545 153.05 34.549 157.178 34.549C157.754 34.549 158.234 34.5959 158.858 34.6428V27.8854C154.874 27.8854 151.802 29.1524 149.978 31.5926Z" fill="#2D898B"/>
<path d="M175.364 53.8827C183.572 53.8827 189.524 48.4861 189.524 40.884C189.524 33.282 183.572 27.8854 175.364 27.8854C167.156 27.8854 161.156 33.282 161.156 40.884C161.156 48.4861 167.156 53.8827 175.364 53.8827ZM175.364 47.8761C171.62 47.8761 168.74 45.2482 168.74 40.884C168.74 36.5199 171.62 33.892 175.364 33.892C179.108 33.892 181.94 36.5199 181.94 40.884C181.94 45.2482 179.108 47.8761 175.364 47.8761Z" fill="#2D898B"/>
<path d="M219.825 40.9779C219.825 32.8596 213.969 27.8854 206.385 27.8854C198.513 27.8854 192.609 33.3289 192.609 40.884C192.609 48.3923 198.417 53.8827 207.345 53.8827C212.001 53.8827 215.601 52.4749 218.001 49.8001L214.017 45.5767C212.241 47.2191 210.273 48.0169 207.537 48.0169C203.601 48.0169 200.865 46.0929 200.145 42.9488H219.681C219.729 42.3388 219.825 41.541 219.825 40.9779ZM206.433 33.4227C209.793 33.4227 212.241 35.4875 212.769 38.6785H200.049C200.577 35.4406 203.025 33.4227 206.433 33.4227Z" fill="#2D898B"/>
</svg>
