<svg width="220" height="54" viewBox="0 0 220 54" fill="none" xmlns="http://www.w3.org/2000/svg">
<path d="M40.6002 5.74468C40.5942 5.09187 39.922 5.64694 39.922 5.64694C40.3067 4.76496 39.6144 4.98929 39.6144 4.98929C39.341 4.34021 38.8257 5.4924 38.8257 5.4924L38.7171 4.58153C38.2587 3.9798 38.0589 4.93077 38.0589 4.93077C38.0589 4.93077 37.9292 4.50329 37.8195 4.52269C37.5454 4.57122 37.3383 5.79966 37.3383 5.79966C37.3383 5.79966 37.3389 5.33448 37.0242 4.83815C36.7096 4.34158 36.4484 4.99828 36.4484 4.99828C36.5989 5.17511 36.6535 5.39792 36.6875 5.63888C36.7215 5.87984 36.7006 6.1306 36.6318 6.34622C36.5631 6.56185 36.4942 6.77756 36.3775 6.95804C36.2608 7.13851 36.1167 7.26577 35.9248 7.358C35.9457 7.10727 35.9938 6.90985 36.0421 6.71232C36.0903 6.51479 36.1179 6.33551 36.1798 6.16476L36.3174 5.6172L36.4826 5.00657C36.0858 4.46654 35.9958 5.28177 35.9958 5.28177C35.4072 4.60131 35.7343 6.17098 35.5491 6.33456C35.4257 6.44361 35.0973 5.92059 35.0973 5.92059C34.9587 7.28209 34.6009 8.44999 34.0859 9.36968C33.9349 9.65803 33.8316 9.98149 33.8313 10.3304L33.8099 11.0462C33.7756 11.0377 33.7345 11.074 33.7619 11.1274L33.6357 13.5623C33.0681 12.6312 32.7132 11.3571 32.5847 9.88302C32.5847 9.88302 32.221 10.398 32.1114 10.3012C31.9197 10.1608 32.2848 8.5992 31.6878 9.24275C31.6878 9.24275 31.6203 8.4118 31.2153 8.96322L31.3517 9.57847L31.5697 10.7023C31.6106 10.8984 31.6515 11.0947 31.6648 11.3539C31.4799 11.2851 31.3431 11.1349 31.2267 10.9665C31.1104 10.7982 31.0216 10.5669 30.967 10.3441C30.9124 10.1213 30.9127 9.88879 30.9336 9.63792C30.9681 9.41372 31.0232 9.17156 31.1742 8.99942C31.1742 8.99942 30.9214 8.33214 30.592 8.85562C30.2623 9.37908 30.2482 9.81748 30.2482 9.81748C30.2482 9.81748 30.0647 8.58573 29.8043 8.54472C29.7016 8.51935 29.564 8.9507 29.564 8.9507C29.564 8.9507 29.4075 8.00482 28.9065 8.60217L28.782 9.52526C28.782 9.52526 28.3037 8.36025 28.0083 9.00836C28.0083 9.00836 27.3096 8.8126 27.6717 9.6929C27.6717 9.6929 27.0419 9.16519 26.9931 9.82768C26.9931 9.82768 26.287 10.1417 26.6359 10.5304C26.7112 10.6188 27.0058 10.6684 27.0058 10.6684C27.0058 10.6684 26.3681 10.9995 26.4227 11.2223C26.4704 11.4899 27.2658 11.0583 27.2929 11.3441C27.3267 11.7014 25.6884 12.1808 27.1884 12.7142C27.3258 12.5155 27.4904 12.37 27.6481 12.2693C27.8058 12.1687 27.9978 12.0765 28.1622 12.0473C28.3473 12 28.5254 11.9975 28.731 12.0482C28.9159 12.117 29.1144 12.2126 29.2444 12.4076C29.0457 12.4283 28.895 12.4841 28.7234 12.5581C28.5727 12.6139 28.4081 12.643 28.2436 12.6722C28.0792 12.7013 27.9146 12.7306 27.7365 12.7331C27.5584 12.7355 27.3801 12.7381 27.1747 12.6874C27.1747 12.6874 26.7079 13.4095 26.8173 13.6227C26.9471 13.9339 27.7975 13.3763 27.9273 13.6876C27.9887 13.8656 27.6113 14.3539 27.6113 14.3539C28.4411 13.8144 29.2569 13.4809 30.0928 13.5943C29.1263 13.8673 28.2688 14.5861 28.2745 15.5878C28.2745 15.5878 28.8434 15.4724 28.946 15.6141C29.0213 15.7025 28.877 16.0622 28.9591 16.1058C29.1918 16.3261 29.8574 15.5833 30.1313 15.7672C30.2271 15.8374 30.165 16.2407 30.2678 16.2662C30.5761 16.3424 31.0847 15.0024 31.0847 15.0024C31.0847 15.0024 30.9738 16.0683 31.6118 15.5047C32.3597 14.6891 33.1067 14.5712 33.5099 15.5315L33.3075 24.9424C33.3142 25.1301 33.4039 25.2615 33.5477 25.2506C33.6917 25.2396 33.7626 25.0858 33.756 24.8981L33.7845 21.1365C34.2514 20.298 34.9571 20.4491 35.6415 21.1996C36.2644 21.7722 36.1971 20.7087 36.1971 20.7087C36.1971 20.7087 36.6478 22.053 36.9631 21.968C37.0728 21.9484 37.0117 21.5379 37.0939 21.4653C37.3545 21.2738 38.0046 22.016 38.2516 21.7978C38.3339 21.7251 38.2109 21.369 38.2932 21.2963C38.4236 21.1424 38.958 21.2511 38.958 21.2511C39.0072 20.2397 38.1583 19.5182 37.2198 19.2632C38.0696 19.1706 38.8778 19.4633 39.6789 20.0334C39.6789 20.0334 39.3094 19.5467 39.3713 19.3758C39.5086 19.0607 40.3303 19.6126 40.502 19.3062C40.605 19.0991 40.1674 18.3628 40.1674 18.3628C39.7699 18.5205 39.4274 18.4359 39.0985 18.378C38.9271 18.3357 38.7901 18.3018 38.619 18.2595C38.4476 18.2172 38.297 18.1568 38.1051 18.1326C38.2288 17.9073 38.4207 17.815 38.6264 17.7495C38.8115 17.7021 39.0239 17.7081 39.1951 17.7503C39.3665 17.7926 39.5513 17.8616 39.7293 17.9753C39.9074 18.089 40.0442 18.2392 40.1742 18.4341C41.6961 17.9027 40.0864 17.3888 40.121 17.0484C40.1487 16.7529 40.9362 17.18 40.9983 16.893C41.0533 16.6507 40.4438 16.3373 40.4438 16.3373C40.4438 16.3373 40.7181 16.2888 40.8005 16.2161C41.1642 15.8174 40.4656 15.5052 40.4656 15.5052C40.4595 14.8524 39.7873 15.4074 39.7873 15.4074C40.1721 14.5255 39.4797 14.7498 39.4797 14.7498C39.2063 14.1007 38.691 15.2529 38.691 15.2529L38.5825 14.342C38.124 13.7403 37.9243 14.6913 37.9243 14.6913C37.9243 14.6913 37.7946 14.2638 37.6849 14.2832C37.4107 14.3317 37.2037 15.5602 37.2037 15.5602C37.2037 15.5602 37.2042 15.095 36.8896 14.5986C36.575 14.1021 36.3138 14.7588 36.3138 14.7588C36.4643 14.9356 36.5189 15.1584 36.5528 15.3994C36.5868 15.6403 36.5659 15.8911 36.4972 16.1067C36.4284 16.3223 36.3596 16.5381 36.2429 16.7185C36.1261 16.899 35.9821 17.0263 35.7901 17.1185C35.8111 16.8678 35.8592 16.6704 35.9074 16.4728C35.9557 16.2753 35.9833 16.096 36.0451 15.9253L36.1828 15.3777L36.348 14.7671C35.9512 14.227 35.8612 15.0423 35.8612 15.0423C35.2726 14.3618 35.5996 15.9315 35.4145 16.0951C35.291 16.2041 34.9627 15.6811 34.9627 15.6811C34.7965 17.1057 34.425 18.3633 33.8552 19.2926L33.8985 11.7426C34.3315 10.6631 35.1125 10.7861 35.8585 11.5985C36.4814 12.1711 36.4142 11.1076 36.4142 11.1076C36.4142 11.1076 36.8648 12.4519 37.1801 12.3669C37.2898 12.3473 37.2287 11.9368 37.3109 11.8642C37.5716 11.6727 38.2216 12.4149 38.4686 12.1967C38.5509 12.124 38.4279 11.7679 38.5103 11.6952C38.6406 11.5413 39.175 11.65 39.175 11.65C39.2242 10.6386 38.3753 9.91708 37.4368 9.66212C38.2866 9.56952 39.0949 9.86221 39.8959 10.4323C39.8959 10.4323 39.5264 9.94563 39.5883 9.77468C39.7256 9.45965 40.5473 10.0116 40.719 9.70511C40.8221 9.49796 40.3844 8.76171 40.3844 8.76171C39.98 8.84797 39.6512 8.78992 39.3223 8.73208C39.151 8.68977 39.0139 8.65592 38.8428 8.61365C38.6715 8.57133 38.5208 8.51095 38.329 8.48674C38.4526 8.26138 38.6446 8.16915 38.8502 8.10358C39.0353 8.05622 39.2477 8.06221 39.419 8.10439C39.5903 8.14671 39.7751 8.21566 39.9532 8.32939C40.1312 8.44313 40.268 8.59329 40.398 8.78821C41.9199 8.25678 40.3102 7.74293 40.3448 7.40254C40.3725 7.10702 41.1601 7.53412 41.2221 7.24707C41.2771 7.00477 40.6676 6.69138 40.6676 6.69138C40.6676 6.69138 40.9624 6.62465 41.0447 6.55191C41.2989 6.05668 40.6002 5.74468 40.6002 5.74468Z" fill="white"/>
<path d="M14.4 53.1334C19.824 53.1334 24.096 50.7871 25.968 46.7514L20.16 43.6542C18.768 46.0944 16.704 47.1268 14.352 47.1268C10.56 47.1268 7.584 44.5458 7.584 40.1348C7.584 35.7237 10.56 33.1427 14.352 33.1427C16.704 33.1427 18.768 34.222 20.16 36.6153L25.968 33.5651C24.096 29.4355 19.824 27.1361 14.4 27.1361C6 27.1361 0 32.5327 0 40.1348C0 47.7368 6 53.1334 14.4 53.1334Z" fill="white"/>
<path d="M30.2794 52.758H37.7674V27.5115H30.2794V52.758Z" fill="white"/>
<path d="M44.7169 52.758H52.2049V17.9386H44.7169V52.758Z" fill="white"/>
<path d="M69.5704 27.1361C65.4424 27.1361 61.2664 28.2154 58.4344 30.1864L61.1224 35.3013C62.9944 33.8466 65.8264 32.955 68.5624 32.955C72.5944 32.955 74.5144 34.7851 74.5144 37.9292H68.5624C60.6904 37.9292 57.4744 41.0264 57.4744 45.4844C57.4744 49.8485 61.0744 53.1334 67.1224 53.1334C70.9144 53.1334 73.6024 51.9133 74.9944 49.6139V52.758H82.0024V38.3516C82.0024 30.7025 77.4424 27.1361 69.5704 27.1361ZM68.9944 48.2061C66.3544 48.2061 64.7704 46.986 64.7704 45.1559C64.7704 43.4665 65.8744 42.1995 69.3784 42.1995H74.5144V44.7805C73.6504 47.0799 71.4904 48.2061 68.9944 48.2061Z" fill="white"/>
<path d="M104.475 27.1361C100.971 27.1361 97.9474 28.3093 95.9314 30.4679V27.5115H88.7794V52.758H96.2674V40.2755C96.2674 35.6298 98.8594 33.4712 102.459 33.4712C105.771 33.4712 107.691 35.3483 107.691 39.4309V52.758H115.179V38.3046C115.179 30.6087 110.571 27.1361 104.475 27.1361Z" fill="white"/>
<path d="M136.607 46.376C135.791 46.986 134.687 47.3145 133.583 47.3145C131.567 47.3145 130.367 46.1413 130.367 43.9827V33.7058H136.799V28.0747H130.367V21.9273H122.879V28.0747H118.895V33.7058H122.879V44.0766C122.879 50.0832 126.431 53.1334 132.527 53.1334C134.831 53.1334 137.087 52.6172 138.623 51.5379L136.607 46.376Z" fill="white"/>
<path d="M149.978 30.8433V27.5115H142.826V52.758H150.314V40.8387C150.314 36.0052 153.05 33.7997 157.178 33.7997C157.754 33.7997 158.234 33.8466 158.858 33.8935V27.1361C154.874 27.1361 151.802 28.4032 149.978 30.8433Z" fill="white"/>
<path d="M175.364 53.1334C183.572 53.1334 189.524 47.7368 189.524 40.1348C189.524 32.5327 183.572 27.1361 175.364 27.1361C167.156 27.1361 161.156 32.5327 161.156 40.1348C161.156 47.7368 167.156 53.1334 175.364 53.1334ZM175.364 47.1268C171.62 47.1268 168.74 44.4989 168.74 40.1348C168.74 35.7706 171.62 33.1427 175.364 33.1427C179.108 33.1427 181.94 35.7706 181.94 40.1348C181.94 44.4989 179.108 47.1268 175.364 47.1268Z" fill="white"/>
<path d="M219.825 40.2286C219.825 32.1103 213.969 27.1361 206.385 27.1361C198.513 27.1361 192.609 32.5796 192.609 40.1348C192.609 47.643 198.417 53.1334 207.345 53.1334C212.001 53.1334 215.601 51.7256 218.001 49.0508L214.017 44.8274C212.241 46.4698 210.273 47.2676 207.537 47.2676C203.601 47.2676 200.865 45.3436 200.145 42.1995H219.681C219.729 41.5895 219.825 40.7917 219.825 40.2286ZM206.433 32.6735C209.793 32.6735 212.241 34.7382 212.769 37.9292H200.049C200.577 34.6913 203.025 32.6735 206.433 32.6735Z" fill="white"/>
</svg>
